<?xml version="1.0" encoding="UTF-8" standalone="no"?>
<!-- Created with Inkscape (http://www.inkscape.org/) -->

<svg
   xmlns:dc="http://purl.org/dc/elements/1.1/"
   xmlns:cc="http://creativecommons.org/ns#"
   xmlns:rdf="http://www.w3.org/1999/02/22-rdf-syntax-ns#"
   xmlns:svg="http://www.w3.org/2000/svg"
   xmlns="http://www.w3.org/2000/svg"
   xmlns:sodipodi="http://sodipodi.sourceforge.net/DTD/sodipodi-0.dtd"
   xmlns:inkscape="http://www.inkscape.org/namespaces/inkscape"
   width="210mm"
   height="297mm"
   viewBox="0 0 210 297"
   version="1.1"
   id="svg8"
   sodipodi:docname="LOGO HDV.svg"
   inkscape:version="0.92.2 (5c3e80d, 2017-08-06)">
  <defs
     id="defs2">
    <inkscape:perspective
       sodipodi:type="inkscape:persp3d"
       inkscape:vp_x="0 : 148.5 : 1"
       inkscape:vp_y="0 : 1000 : 0"
       inkscape:vp_z="210 : 148.5 : 1"
       inkscape:persp3d-origin="105 : 99 : 1"
       id="perspective3756" />
  </defs>
  <sodipodi:namedview
     id="base"
     pagecolor="#ffffff"
     bordercolor="#666666"
     borderopacity="1.0"
     inkscape:pageopacity="0.0"
     inkscape:pageshadow="2"
     inkscape:zoom="0.35"
     inkscape:cx="11.687289"
     inkscape:cy="677.669"
     inkscape:document-units="mm"
     inkscape:current-layer="g84"
     showgrid="false"
     inkscape:measure-start="-1062.86,428.571"
     inkscape:measure-end="494.286,777.143"
     inkscape:window-width="1366"
     inkscape:window-height="705"
     inkscape:window-x="-8"
     inkscape:window-y="-8"
     inkscape:window-maximized="1"
     inkscape:snap-page="true"
     inkscape:snap-grids="false"
     inkscape:snap-to-guides="false" />
  <metadata
     id="metadata5">
    <rdf:RDF>
      <cc:Work
         rdf:about="">
        <dc:format>image/svg+xml</dc:format>
        <dc:type
           rdf:resource="http://purl.org/dc/dcmitype/StillImage" />
        <dc:title></dc:title>
      </cc:Work>
    </rdf:RDF>
  </metadata>
  <g
     inkscape:label="Capa 1"
     inkscape:groupmode="layer"
     id="layer1">
    <g
       id="g84">
      <path
         transform="scale(0.26458333)"
         inkscape:connector-curvature="0"
         id="path4671"
         d=""
         style="fill:#ff0000;stroke-width:2.85714293" />
      <path
         transform="scale(0.26458333)"
         inkscape:connector-curvature="0"
         id="path4677"
         d=""
         style="fill:#ff0000;stroke-width:0.35714287" />
      <path
         transform="scale(0.26458333)"
         inkscape:connector-curvature="0"
         id="path4679"
         d=""
         style="fill:#ff0000;stroke-width:0.35714287" />
      <path
         transform="scale(0.26458333)"
         inkscape:connector-curvature="0"
         id="path41"
         d=""
         style="fill:#000000;stroke-width:0.50507629" />
      <g
         id="g94">
        <flowRoot
           xml:space="preserve"
           id="flowRoot3738"
           style="font-style:normal;font-weight:normal;font-size:40px;line-height:1.25;font-family:sans-serif;letter-spacing:10.03000021px;word-spacing:0px;fill:#000000;fill-opacity:1;stroke:none;"
           transform="scale(0.26458333)"><flowRegion
             id="flowRegion3740"
             style="letter-spacing:10.03000021px;"><rect
               id="rect3742"
               width="688.57141"
               height="431.42856"
               x="80"
               y="259.66254"
               style="letter-spacing:10.03000021px;" /></flowRegion><flowPara
             id="flowPara3744"
             style="-inkscape-font-specification:'Bradley Hand ITC';font-family:'Bradley Hand ITC';font-weight:normal;font-style:normal;font-stretch:normal;font-variant:normal;font-size:96.00000121px;text-anchor:middle;text-align:center;letter-spacing:10.03000021px;">ALEXANDER PARRA</flowPara></flowRoot>        <path
           sodipodi:type="star"
           style="fill:#c8b7b7;stroke-width:0.26458332"
           id="path4611"
           sodipodi:sides="5"
           sodipodi:cx="41.577381"
           sodipodi:cy="109.52381"
           sodipodi:r1="19.669292"
           sodipodi:r2="9.5227833"
           sodipodi:arg1="0.038442596"
           sodipodi:arg2="0.24419962"
           inkscape:flatsided="false"
           inkscape:rounded="0"
           inkscape:randomized="0"
           d="m 61.232141,110.27976 -10.414507,1.54647 -3.885551,16.62397 -4.689035,-9.4269 -17.01104,1.44171 7.516525,-7.37261 -6.627849,-15.732945 9.334502,4.870375 12.914804,-11.165204 -1.747486,10.382664 z"
           inkscape:transform-center-x="-1.6546929"
           inkscape:transform-center-y="-0.23360385" />
        <path
           sodipodi:type="star"
           style="fill:#c8b7b7;stroke-width:0.26458332"
           id="path4611-1"
           sodipodi:sides="5"
           sodipodi:cx="179.01792"
           sodipodi:cy="110.80211"
           sodipodi:r1="19.669294"
           sodipodi:r2="9.5227833"
           sodipodi:arg1="0.038442596"
           sodipodi:arg2="0.24419962"
           inkscape:flatsided="false"
           inkscape:rounded="0"
           inkscape:randomized="0"
           d="m 198.67268,111.55806 -10.41451,1.54647 -3.88555,16.62397 -4.68904,-9.4269 -17.01104,1.44171 7.51653,-7.37261 -6.62786,-15.732949 9.33451,4.870379 12.9148,-11.165209 -1.74748,10.382669 z"
           inkscape:transform-center-x="-1.6546929"
           inkscape:transform-center-y="-0.23360385" />
        <g
           id="g45">
          <g
             id="g48">
            <path
               sodipodi:type="spiral"
               style="fill:none;fill-rule:evenodd;stroke:#000000;stroke-width:0.26458332"
               id="path4657"
               sodipodi:cx="100.54166"
               sodipodi:cy="92.89286"
               sodipodi:expansion="1"
               sodipodi:revolution="3.02548"
               sodipodi:radius="94.078873"
               sodipodi:argument="-18.224253"
               sodipodi:t0="0.00694039"
               d="m 101.01617,93.341378 c 3.04956,3.752792 -3.484688,6.31501 -6.263038,5.675561 -7.523818,-1.731637 -8.951967,-11.275824 -5.985115,-17.25261 5.178538,-10.432275 19.010423,-12.001422 28.242173,-6.294669 13.40595,8.287097 15.13025,26.83857 6.60423,39.23175 -11.29682,16.42072 -34.700745,18.29354 -50.221315,6.91377 C 53.936037,107.34916 51.918271,79.03579 66.169774,60.404302 83.384706,37.898621 116.63719,35.737679 138.37022,52.871417 c 25.56185,20.152275 27.86504,58.361313 7.84244,83.190013 -23.08242,28.62299 -66.259157,31.0679 -94.179582,8.152 C 20.345543,118.20564 17.75921,70.053643 43.571531,39.044276 72.501351,4.2897334 125.63397,1.5621643 159.73025,30.273174 c 37.82337,31.849437 40.69206,89.966636 9.08065,127.148286 -0.5724,0.67326 -1.15431,1.33843 -1.74549,1.99526"
               transform="matrix(1,0,0,0.70646035,0,46.869149)" />
          </g>
        </g>
        <path
           style="fill:#ff0000;stroke-width:2.85714293"
           d="m 168.26865,464.37313 -7.70057,-15.70116 -23.56975,1.73102 c -12.96337,0.95206 -25.0705,2.18661 -26.90473,2.74345 -7.73056,2.34684 -5.36251,-6.80843 3.61354,-13.97059 5.34679,-4.26631 9.72143,-9.51674 9.72143,-11.66764 0,-2.1509 -4.53008,-14.49458 -10.06684,-27.4304 -5.53676,-12.93582 -9.39017,-24.19636 -8.56312,-25.0234 0.82705,-0.82705 7.86508,1.47577 15.64006,5.11738 l 14.13634,6.62111 22.2054,-18.83418 c 12.21296,-10.3588 22.64439,-18.39518 23.18095,-17.85863 0.53656,0.53656 -0.27823,7.85761 -1.81066,16.26901 -1.53242,8.41139 -1.71865,16.58559 -0.41384,18.16489 1.30481,1.57929 10.13105,7.36501 19.61387,12.85714 13.14056,7.61058 17.03919,11.34486 16.391,15.69998 -0.64085,4.3058 -3.40923,5.93191 -11.23138,6.59719 -11.42199,0.97144 -10.89646,-0.0715 -20.21669,40.12197 -2.31449,9.98125 -4.68433,18.6239 -5.26631,19.20587 -0.58198,0.58198 -4.52339,-6.00738 -8.7587,-14.64301 z"
           id="path4667"
           inkscape:connector-curvature="0"
           transform="scale(0.26458333)" />
        <path
           style="fill:#ff0000;stroke-width:2.85714293"
           d="m 688.20904,469.96587 -7.8385,-15.98238 -30.61384,1.99806 -30.61384,1.99806 12.52104,-12.93774 12.52104,-12.93774 -10.6509,-25.22079 c -5.858,-13.87144 -11.29057,-26.78098 -12.07239,-28.68786 -0.78182,-1.90688 5.44805,0.31983 13.84415,4.94824 8.39609,4.62842 16.18883,8.4386 17.3172,8.46707 1.12836,0.0286 11.57368,-8.25293 23.21182,-18.4031 11.63813,-10.15017 21.78585,-17.82924 22.55048,-17.06461 0.76463,0.76463 0.33959,6.81931 -0.94453,13.45485 -3.52881,18.23472 -3.31995,18.96574 7.19039,25.167 7.69282,4.53887 10.18671,8.20949 11.71214,17.23845 1.44899,8.57651 0.84984,12.32454 -2.37405,14.85112 -2.3717,1.85871 -7.1578,15.91519 -10.63578,31.23661 -3.47798,15.32143 -6.54013,27.85715 -6.80477,27.85715 -0.26464,0 -4.00849,-7.19207 -8.31966,-15.98239 z"
           id="path4669"
           inkscape:connector-curvature="0"
           transform="scale(0.26458333)" />
        <path
           style="fill:#ff0000;stroke-width:1.01015258"
           d="m 719.9335,421.7851 c -0.0294,-2.26254 -0.63086,-7.63662 -1.33649,-11.94239 -0.70563,-4.30578 -1.16255,-7.82868 -1.01536,-7.82868 0.95741,0 30.68965,18.45629 30.68965,19.0506 0,0.40724 -6.36396,1.66152 -14.14214,2.7873 l -14.14213,2.04687 z"
           id="path4673"
           inkscape:connector-curvature="0"
           transform="scale(0.26458333)" />
        <path
           style="fill:#ff0000;stroke-width:0.35714287"
           d="m 715.49326,425.47699 c 0.50178,-0.73941 1.07444,-1.92802 1.27258,-2.64135 0.91661,-3.29995 -0.11593,-12.51097 -1.94813,-17.37868 -1.70293,-4.52426 -4.23778,-7.21682 -10.28591,-10.92584 -3.97703,-2.43891 -6.06829,-3.90921 -5.85856,-4.11895 0.0737,-0.0737 3.81035,2.08927 8.30362,4.80665 l 8.16958,4.94068 0.43972,2.11816 c 1.44316,6.95163 3.69508,23.4789 3.25859,23.91539 -0.0793,0.0793 -1.07106,0.25307 -2.20397,0.38622 l -2.05984,0.2421 z"
           id="path4675"
           inkscape:connector-curvature="0"
           transform="scale(0.26458333)" />
        <path
           style="fill:#ff0000;stroke-width:0.35714287"
           d="m 699.77741,354.53232 -1.10266,-2.23888 1.59108,-1.37706 c 0.87509,-0.75739 1.63461,-1.32899 1.68783,-1.27024 0.0532,0.0587 -0.16657,1.68592 -0.48842,3.61594 l -0.58517,3.50911 z"
           id="path4681"
           inkscape:connector-curvature="0"
           transform="scale(0.26458333)" />
        <path
           style="fill:#ff0000;stroke-width:0.35714287"
           d="m 695.72679,383.48819 c -0.0185,-2.48785 0.35694,-5.54975 1.39079,-11.34378 1.99307,-11.16978 2.28394,-16.14145 0.94437,-16.14145 -1.39324,0 -10.96537,7.31662 -22.01798,16.82982 -8.8461,7.61401 -15.71803,13.27081 -15.90019,13.08865 -0.0925,-0.0925 7.99064,-7.20971 17.9626,-15.81595 9.97196,-8.60625 18.45334,-15.93419 18.84752,-16.28432 0.70332,-0.62472 0.74329,-0.58517 2.14286,2.12058 l 1.42617,2.75718 -2.38543,14.09845 c -2.30361,13.61491 -2.38629,13.98158 -2.41071,10.69082 z"
           id="path4683"
           inkscape:connector-curvature="0"
           transform="scale(0.26458333)" />
        <path
           style="fill:#ff0000;stroke-width:0.35714287"
           d="m 688.39316,469.87514 c -4.21835,-8.47744 -7.71782,-15.55781 -7.7766,-15.73414 -0.0603,-0.18084 -13.32352,0.5463 -30.42324,1.66792 -16.67401,1.09369 -30.35294,1.94638 -30.39763,1.89486 -0.0447,-0.0515 5.44303,-5.79903 12.19491,-12.77225 6.75189,-6.97321 12.27587,-12.75892 12.27551,-12.85714 -3.5e-4,-0.0982 -5.11981,-12.3125 -11.37657,-27.14286 -12.54887,-29.74449 -11.95662,-27.81471 -8.16184,-26.59449 1.02666,0.33012 5.96487,2.70494 10.9738,5.27738 11.27075,5.78832 15.12416,7.6736 16.27452,7.96232 0.66981,0.16812 1.38302,-0.10009 2.84178,-1.06865 2.7619,-1.8338 11.36413,-8.79077 19.09799,-15.44531 13.99947,-12.04574 22.62382,-18.70267 24.23014,-18.70267 0.84984,0 0.28291,7.03357 -1.20906,15 -1.59897,8.53782 -1.9478,13.60949 -1.09046,15.85441 0.83251,2.1799 2.97554,4.16876 7.43457,6.89972 4.99494,3.05917 7.63381,5.21517 9.29696,7.59577 2.39213,3.42402 4.1985,10.82474 4.18601,17.1501 -0.008,3.96933 -0.57071,5.55304 -2.78429,7.83398 -3.03665,3.12906 -7.09276,15.35484 -11.67876,35.20173 -3.51208,15.19923 -5.58379,23.39286 -5.91477,23.39286 -0.17779,0 -3.77462,-6.9361 -7.99297,-15.41354 z"
           id="path4685"
           inkscape:connector-curvature="0"
           transform="scale(0.26458333)" />
        <path
           style="fill:#ff0000;stroke-width:0.35714287"
           d="m 643.2015,432.40983 c 0,-0.28693 -5.54429,-13.6855 -12.32064,-29.77459 -6.77636,-16.08909 -12.28082,-29.29135 -12.23215,-29.33835 0.0487,-0.047 7.83655,3.95781 17.30638,8.89959 9.46983,4.94178 16.98754,9.03619 16.70601,9.09868 -0.75011,0.16652 -4.96637,-1.81807 -15.00587,-7.06325 -11.71075,-6.11832 -16.23944,-7.86574 -16.23944,-6.26606 0,0.29387 4.76221,11.82512 10.5827,25.625 5.82048,13.79987 10.90756,25.86165 11.3046,26.80393 0.5451,1.29365 0.62107,1.8141 0.31016,2.125 -0.3109,0.31091 -0.41175,0.28398 -0.41175,-0.10995 z"
           id="path4687"
           inkscape:connector-curvature="0"
           transform="scale(0.26458333)" />
        <path
           style="fill:#ff0000;stroke-width:0.35714287"
           d="m 628.34041,447.03008 c 7.24604,-7.14527 13.35319,-13.05678 13.57143,-13.13668 0.21824,-0.0799 -2.57641,2.93966 -6.21034,6.71014 -13.32263,13.82326 -16.51776,17.215 -16.36292,17.36983 0.087,0.087 12.44263,-0.64823 27.45697,-1.63383 15.01435,-0.98561 27.94167,-1.74579 28.72738,-1.68929 0.78571,0.0565 -11.58929,1.19778 -27.5,2.53619 -15.91071,1.33841 -29.8125,2.52383 -30.89286,2.63426 l -1.96428,0.20079 z"
           id="path4689"
           inkscape:connector-curvature="0"
           transform="scale(0.26458333)" />
        <path
           style="fill:#ff0000;stroke-width:0.35714287"
           d="m 687.83647,472.03505 -8.74211,-17.51942 -1.78572,0.19529 c -1.20111,0.13135 -1.55187,0.0907 -1.07142,-0.12409 0.39285,-0.17566 1.45426,-0.33067 2.35867,-0.34448 l 1.64439,-0.0251 7.9173,15.89286 c 4.35451,8.74107 8.06681,15.89285 8.24954,15.89285 0.18273,0 0.50287,-0.60268 0.71141,-1.33928 0.64646,-2.28336 3.46389,-13.87941 5.01115,-20.625 2.8648,-12.48976 4.91582,-20.21543 4.97776,-18.75 0.0326,0.77161 -10.00528,43.69943 -10.29045,44.00789 -0.13113,0.14184 -4.17237,-7.62584 -8.98052,-17.26152 z"
           id="path4691"
           inkscape:connector-curvature="0"
           transform="scale(0.26458333)" />
        <path
           style="fill:#ff0000;stroke-width:0.35714287"
           d="m 215.88073,416.98511 c -0.12414,-1.03125 -0.17588,-3.57772 -0.11499,-5.65882 l 0.11071,-3.78382 7.4456,4.48625 c 5.78462,3.48546 7.29838,4.54547 6.78571,4.75173 -0.59526,0.23947 -12.62766,2.07966 -13.59827,2.07966 -0.22169,0 -0.50463,-0.84375 -0.62876,-1.875 z"
           id="path4693"
           inkscape:connector-curvature="0"
           transform="scale(0.26458333)" />
        <path
           style="fill:#ff0000;stroke-width:0.35714287"
           d="m 194.4305,421.74538 c 0.44636,-0.72223 3.47307,-1.45797 8.10081,-1.96917 7.21435,-0.79694 9.54553,-1.85775 10.8281,-4.92736 1.23067,-2.94541 0.29064,-5.94524 -2.70779,-8.64108 -2.75521,-2.47718 -5.62594,-4.41428 -13.53669,-9.13425 -4.02045,-2.39881 -9.28381,-5.65158 -11.69635,-7.22838 -8.83688,-5.77562 -3.65211,-2.94448 12.48399,6.81688 l 16.54531,10.00891 0.0469,6.27316 c 0.0258,3.45024 -3.1e-4,6.27316 -0.058,6.27316 -0.0577,0 -4.39194,0.64286 -9.63174,1.42857 -10.35064,1.55209 -10.67549,1.58652 -10.37453,1.09956 z"
           id="path4695"
           inkscape:connector-curvature="0"
           transform="scale(0.26458333)" />
        <path
           style="fill:#ff0000;stroke-width:0.35714287"
           d="m 168.49485,467.31361 -8.7881,-17.58049 -27.04132,2.29274 c -21.16804,1.79476 -27.10082,2.19647 -27.31525,1.84952 -0.15066,-0.24377 -0.62925,-1.73976 -1.06353,-3.32441 l -0.7896,-2.88119 9.30025,-9.30024 c 5.11513,-5.11514 9.4026,-9.1979 9.5277,-9.0728 0.4563,0.45631 -2.04313,3.48074 -5.94349,7.19191 -2.19656,2.09001 -4.12512,3.80003 -4.28567,3.80003 -0.16056,0 -1.2698,1.16171 -2.46498,2.58159 -3.8199,4.53804 -5.25604,8.57641 -3.5871,10.08679 0.77651,0.70273 1.04752,0.6933 8.76127,-0.30477 7.3531,-0.9514 45.4285,-4.04941 45.71288,-3.71944 0.0502,0.0582 2.32978,4.68618 5.06581,10.2844 6.12524,12.5329 10.29105,19.90935 11.28372,19.98024 0.70332,0.0502 2.73823,-7.36789 7.05941,-25.73457 3.73581,-15.87863 5.73783,-23.59528 5.95363,-22.94789 0.1055,0.31652 -12.2936,54.07513 -12.52563,54.30716 -0.0395,0.0395 -4.02655,-7.83932 -8.86,-17.50858 z"
           id="path4697"
           inkscape:connector-curvature="0"
           transform="scale(0.26458333)" />
        <path
           style="fill:#ff0000;stroke-width:0.35714287"
           d="m 98.912168,451.92362 3.392862,-3.43779 0.61556,2.06214 c 0.33856,1.13417 0.7086,2.48436 0.82231,3.0004 l 0.20675,0.93827 -3.50088,0.2454 c -1.92549,0.13497 -3.822316,0.33179 -4.215173,0.43738 -0.393939,0.10588 0.807362,-1.34982 2.678571,-3.2458 z"
           id="path4699"
           inkscape:connector-curvature="0"
           transform="scale(0.26458333)" />
        <path
           style="fill:#ff0000;stroke-width:0.35714287"
           d="m 111.61387,398.27078 -8.53577,-20.26974 0.83363,-3.32047 c 0.45849,-1.82625 0.88157,-3.32046 0.94018,-3.32046 0.0586,0 4.57203,2.32878 10.02984,5.17506 5.4578,2.84629 9.7178,5.17665 9.46666,5.17858 -0.25113,0.002 -1.42472,-0.4852 -2.60797,-1.08251 -4.56965,-2.30674 -13.36693,-5.58932 -15.32827,-5.71951 -1.61314,-0.10707 -1.78572,0.001 -1.78572,1.11966 0,1.75202 3.55642,11.90157 7.49864,21.40014 5.12247,12.34233 8.26937,20.37455 8.13746,20.77028 -0.0621,0.18629 -3.954,-8.78266 -8.64868,-19.93103 z"
           id="path4701"
           inkscape:connector-curvature="0"
           transform="scale(0.26458333)" />
        <path
           style="fill:#ff0000;stroke-width:0.35714287"
           d="m 138.74047,382.48016 c 2.55003,-2.45 43.46629,-37.58736 43.60624,-37.44742 0.0854,0.0854 -1.00486,7.11628 -2.42273,15.62424 -1.41787,8.50797 -2.63707,15.29165 -2.70933,15.07485 -0.1573,-0.4719 0.61125,-6.34737 1.85881,-14.21041 1.01408,-6.39143 1.31063,-11.25856 0.69911,-11.47416 -0.94979,-0.33487 -10.59626,7.25347 -28.79587,22.65213 -7.02279,5.94197 -12.88842,10.80357 -13.03475,10.80357 -0.14632,0 0.21301,-0.46026 0.79852,-1.0228 z"
           id="path4703"
           inkscape:connector-curvature="0"
           transform="scale(0.26458333)" />
        <path
           style="fill:#ff0000;stroke-width:0.35714287"
           d="m 101.41893,374.03868 c -1.40302,-3.18263 -2.179296,-5.26794 -2.020236,-5.427 0.202163,-0.20217 4.160256,2.02924 4.143786,2.33609 -0.007,0.12857 -0.3104,1.27841 -0.67444,2.55519 l -0.6619,2.32143 z"
           id="path4705"
           inkscape:connector-curvature="0"
           transform="scale(0.26458333)" />
        <path
           style="fill:#1a1a1a;stroke-width:0.35714287"
           d="m 252.33372,459.74582 c -1.19537,-2.45763 -1.47988,-3.42613 -1.47988,-5.03767 0,-1.09731 -0.16814,-2.30929 -0.37366,-2.6933 -0.20551,-0.384 -0.25681,-0.88724 -0.114,-1.11831 0.3594,-0.58152 0.14663,-3.93538 -0.28252,-4.45325 -0.19318,-0.23312 -1.22848,-0.53346 -2.30066,-0.66742 -1.31559,-0.16437 -2.05859,-0.44754 -2.28518,-0.87092 -0.29438,-0.55005 -0.10612,-0.65729 1.528,-0.8704 3.35336,-0.43733 3.38075,-0.45456 3.63446,-2.28699 0.12688,-0.91637 0.30815,-2.87149 0.40282,-4.3447 0.0947,-1.47322 0.35032,-3.03228 0.5681,-3.46459 0.21939,-0.43548 0.30517,-1.47074 0.19235,-2.32142 -0.30465,-2.29724 0.57382,-10.81285 1.19264,-11.56108 0.28393,-0.3433 0.51622,-1.04047 0.51622,-1.54927 0,-0.77981 0.17968,-0.94245 1.14422,-1.03576 1.37996,-0.13348 2.45374,0.38355 2.69247,1.29645 0.0967,0.36997 -0.21833,1.60755 -0.70017,2.75017 -0.82665,1.96027 -0.84581,2.15454 -0.33965,3.4431 0.30673,0.78086 0.39625,1.45226 0.20907,1.56794 -0.18005,0.11128 -0.32736,0.78286 -0.32736,1.49241 0,0.72747 -0.27257,1.59127 -0.625,1.9807 -0.57748,0.63811 -0.74668,1.70918 -0.8448,5.34777 -0.0172,0.6384 -0.18776,2.42863 -0.37899,3.9783 -0.29907,2.42353 -0.26719,2.89803 0.22794,3.39285 0.52928,0.52896 0.6881,0.51058 1.97256,-0.22829 0.76832,-0.44196 1.87794,-0.80357 2.46582,-0.80357 0.58789,0 1.16169,-0.15017 1.27513,-0.33372 0.27649,-0.44737 3.79354,-1.45199 5.08322,-1.45199 0.56662,0 1.66069,-0.32143 2.43126,-0.71429 0.77057,-0.39286 1.6668,-0.71429 1.99164,-0.71429 0.32483,0 0.97388,-0.29248 1.44234,-0.64996 0.83349,-0.63605 4.67838,-1.963 7.04085,-2.42994 0.65401,-0.12927 1.37571,-0.53381 1.60377,-0.89899 0.22805,-0.36518 0.76629,-0.66396 1.19608,-0.66396 0.76964,0 1.90389,-0.84321 1.90389,-1.41537 0,-0.1611 0.40179,-0.39376 0.89286,-0.51701 0.49107,-0.12325 0.89285,-0.39257 0.89285,-0.59849 0,-0.20593 0.28125,-0.28931 0.625,-0.1853 0.6118,0.18511 1.39687,-1.0653 2.03679,-3.24407 0.34461,-1.17328 -1.26915,-4.05951 -2.89348,-5.17504 -2.95991,-2.03277 -10.24574,-5.44792 -11.75017,-5.50776 -0.81396,-0.0324 -1.841,-0.25211 -2.2823,-0.48829 -0.4413,-0.23617 -1.15964,-0.33974 -1.5963,-0.23014 -0.43667,0.10959 -1.10473,-0.0154 -1.48459,-0.27776 -0.65771,-0.45425 -1.64024,-0.71314 -4.44066,-1.17004 -0.6875,-0.11218 -1.44489,-0.36032 -1.68309,-0.55143 -0.7377,-0.59188 -4.61524,-0.77991 -5.8171,-0.28208 -0.93884,0.38888 -1.30171,0.36161 -2.52427,-0.18968 -1.03006,-0.4645 -1.5362,-0.53546 -1.81691,-0.25474 -0.27043,0.27042 -0.63277,0.27809 -1.18798,0.0251 -0.62688,-0.28562 -1.29023,-0.15837 -3.08119,0.59109 -2.01759,0.84429 -2.91457,1.14465 -4.95433,1.65899 -0.32488,0.0819 -0.77744,-0.3692 -1.17233,-1.1686 -0.61762,-1.2503 -0.61788,-1.35187 -0.007,-2.55585 0.53828,-1.06015 0.91244,-1.31488 2.42233,-1.64912 2.18482,-0.48366 6.2516,-0.6722 6.48133,-0.30049 0.0924,0.14948 1.89132,0.27178 3.99763,0.27178 2.47916,0 4.51832,0.20323 5.7825,0.57631 1.07405,0.31697 2.51134,0.56695 3.19398,0.5555 0.68263,-0.0114 1.32549,0.0968 1.42857,0.24048 0.10308,0.14371 1.39078,0.46227 2.86155,0.70791 1.47077,0.24564 2.8288,0.6013 3.01785,0.79036 0.18906,0.18905 0.91869,0.34373 1.62141,0.34373 0.70272,0 1.59469,0.22053 1.98214,0.49008 0.38746,0.26954 1.22679,0.60374 1.86518,0.74266 0.6384,0.13892 1.16072,0.40053 1.16072,0.58135 0,0.18082 0.40977,0.32876 0.91059,0.32876 1.10192,0 3.01798,0.93924 3.01798,1.4794 0,0.21429 0.32143,0.30557 0.71429,0.20284 0.40954,-0.1071 0.71546,-0.0106 0.71703,0.2262 0.003,0.48479 2.5657,2.02014 3.37158,2.02014 0.30483,0 0.55424,0.16098 0.55424,0.35773 0,0.19676 0.80357,0.93505 1.78572,1.64065 0.98214,0.7056 1.78571,1.51235 1.78571,1.79277 0,0.28043 0.422,1.14756 0.93778,1.92695 0.81622,1.23339 0.88451,1.54488 0.5269,2.40306 -0.81691,1.96039 -5.05497,5.88861 -7.53611,6.98515 -0.88393,0.39065 -1.99042,1.00869 -2.45888,1.37341 -0.46845,0.36472 -1.3122,0.66313 -1.875,0.66313 -0.56279,0 -1.02326,0.16072 -1.02326,0.35715 0,0.19642 -0.41104,0.35714 -0.91341,0.35714 -0.83423,0 -3.7885,1.396 -4.60445,2.17576 -0.1866,0.17833 -0.81681,0.32424 -1.40045,0.32424 -0.58364,0 -1.3479,0.2595 -1.69837,0.57666 -0.66876,0.60523 -4.37291,1.53223 -6.20812,1.55365 -0.69731,0.008 -1.24007,0.27717 -1.54534,0.76598 -0.37823,0.60565 -0.69184,0.70917 -1.59885,0.52777 -1.75958,-0.35192 -5.8414,1.44234 -6.30587,2.77189 -0.24953,0.71429 -0.23144,1.24628 0.0607,1.78572 0.22888,0.42258 0.46244,2.1344 0.51902,3.80404 0.0566,1.66965 0.29273,4.26718 0.52476,5.7723 l 0.42189,2.73659 1.14281,-0.18546 c 0.8156,-0.13235 1.20204,-0.0311 1.3497,0.3537 0.34008,0.88625 -0.53471,1.58958 -2.28203,1.83473 l -1.64512,0.23081 z"
           id="path35"
           inkscape:connector-curvature="0"
           transform="scale(0.26458333)" />
        <path
           style="fill:#d4aa00;stroke-width:0.35714287"
           d="m 363.86853,464.3785 c -0.38129,-0.28839 -0.95483,-0.52947 -1.27453,-0.53572 -0.3197,-0.006 -0.78134,-0.25242 -1.02587,-0.54707 -0.24453,-0.29464 -0.74635,-0.53571 -1.11516,-0.53571 -0.36881,0 -0.67056,-0.16072 -0.67056,-0.35714 0,-0.19643 -0.3616,-0.71744 -0.80357,-1.1578 -1.45772,-1.45242 -4.19643,-5.85443 -4.19643,-6.74506 0,-0.24418 -0.30022,-0.77575 -0.66716,-1.18127 -0.82942,-0.91663 -3.23461,-6.3477 -3.60195,-8.13345 -0.14988,-0.7286 -0.53636,-1.72741 -0.85884,-2.21958 -0.32248,-0.49217 -0.58633,-1.3023 -0.58633,-1.80028 0,-0.72185 -0.17675,-0.90542 -0.87178,-0.90542 -0.47948,0 -0.96851,0.15652 -1.08674,0.34782 -0.11823,0.1913 -0.81076,0.34413 -1.53894,0.33962 -0.72818,-0.004 -2.28826,0.0936 -3.46683,0.21807 -1.17857,0.12444 -2.93368,0.21217 -3.90025,0.19496 -0.96658,-0.0172 -2.09453,0.1896 -2.50656,0.45957 -0.71931,0.47132 -4.35885,0.74665 -8.15708,0.61709 -0.93871,-0.032 -1.98325,0.0965 -2.3212,0.28565 -0.4384,0.24534 -0.79149,0.18365 -1.2323,-0.21527 -0.9354,-0.84653 -2.93355,-0.89975 -3.94385,-0.10505 -0.4723,0.37152 -1.4071,1.47922 -2.07732,2.46157 -0.67022,0.98235 -1.53769,1.83492 -1.9277,1.8946 -0.40696,0.0623 -1.47224,1.19868 -2.5,2.66689 -0.98499,1.40711 -3.01366,3.89818 -4.50817,5.53571 -1.49451,1.63754 -3.12068,3.62368 -3.61371,4.41365 -1.55865,2.49736 -4.56186,3.48699 -4.56186,1.50324 0,-1.16276 0.79654,-2.75485 1.37995,-2.75819 0.62567,-0.004 3.26291,-1.47966 3.26291,-1.82627 0,-0.14486 1.1423,-1.44115 2.53845,-2.88066 1.39615,-1.43951 2.76195,-3.13381 3.03513,-3.76512 0.27317,-0.63131 0.79504,-1.30751 1.15971,-1.50268 0.92233,-0.49362 3.62385,-4.73005 3.62385,-5.68281 0,-0.43093 -0.19139,-1.08998 -0.42531,-1.46455 -0.65236,-1.0446 1.29044,-2.70638 3.52157,-3.01219 1.68962,-0.23159 2.20751,-0.66074 2.64277,-2.18994 0.11182,-0.39285 0.45931,-0.69432 0.7722,-0.66991 0.36139,0.0282 0.78651,-0.52544 1.16551,-1.51786 0.32815,-0.85922 0.8244,-1.56223 1.1028,-1.56223 0.2784,0 0.50618,-0.23542 0.50618,-0.52315 0,-0.28773 0.32143,-0.69517 0.71428,-0.90542 0.3978,-0.21289 0.71429,-0.74779 0.71429,-1.20721 0,-0.45372 0.31935,-1.11395 0.70967,-1.46719 0.39033,-0.35323 0.90475,-1.18171 1.14318,-1.84107 0.27318,-0.75546 0.67112,-1.19881 1.07604,-1.19881 0.39899,0 0.64254,-0.26403 0.64254,-0.69654 0,-0.3831 0.26251,-0.84345 0.58335,-1.02301 0.63743,-0.35672 0.62155,-0.55696 -0.40179,-5.06617 -0.79821,-3.51722 -0.56135,-9.7762 0.51108,-13.50536 0.90267,-3.13885 3.02534,-7.43251 4.90145,-9.91445 1.92885,-2.55172 5.0769,-6.02824 5.27725,-5.82789 0.0925,0.0925 -0.87609,1.3673 -2.15238,2.83292 -5.75861,6.61289 -8.36182,13.11708 -8.36182,20.89226 0,3.76759 0.90863,8.59791 1.67248,8.89103 0.29898,0.11473 0.45752,-0.006 0.39544,-0.30031 -0.057,-0.2705 0.33833,-0.90312 0.87851,-1.40581 0.54018,-0.5027 0.98214,-1.23361 0.98214,-1.62426 0,-0.39064 0.16072,-0.80959 0.35714,-0.93099 0.19643,-0.1214 0.35715,-0.50465 0.35715,-0.85168 0,-0.34702 0.40178,-1.00841 0.89285,-1.46974 0.49108,-0.46134 0.89286,-1.03405 0.89286,-1.27269 0,-0.23865 0.30624,-0.81208 0.68053,-1.27431 0.52661,-0.65034 0.59651,-0.99739 0.30906,-1.5345 -0.30368,-0.56743 -0.19612,-0.84491 0.58939,-1.52058 0.52847,-0.45457 1.19296,-0.8265 1.47665,-0.8265 0.28369,0 0.5158,-0.18263 0.5158,-0.40584 0,-0.22321 0.41803,0.0122 0.92895,0.5231 0.51091,0.51092 1.23413,1.02581 1.60714,1.1442 0.45902,0.14569 0.6782,0.54713 0.6782,1.2422 0,0.99608 1.25388,3.56777 1.73954,3.56777 0.13223,0 0.44221,1.06376 0.68885,2.36391 0.24663,1.30015 0.83373,3.02782 1.30467,3.83928 0.47093,0.81146 1.09744,2.65491 1.39224,4.09657 0.2948,1.44164 0.76802,2.88807 1.0516,3.21428 0.28359,0.32621 0.43972,0.8033 0.34699,1.0602 -0.0927,0.2569 0.0991,0.76288 0.42622,1.12438 0.43011,0.47527 0.56911,1.18661 0.50195,2.56863 -0.093,1.91393 0.58551,3.85426 1.56325,4.47037 0.24694,0.1556 2.29719,0.31022 4.55611,0.3436 3.02997,0.0448 4.31885,-0.0731 4.91436,-0.44946 0.63628,-0.40211 0.97207,-0.42191 1.58573,-0.0935 l 0.77852,0.41665 -0.83144,0.67326 c -0.47031,0.38083 -1.3142,0.64926 -1.94288,0.61799 -0.61129,-0.0304 -1.59357,0.14218 -2.18286,0.38352 -0.58928,0.24134 -2.15222,0.43222 -3.4732,0.42419 -4.46779,-0.0272 -3.04014,0.93155 2.61948,1.75909 2.62185,0.38337 4.45886,0.29137 11.21087,-0.56143 1.31274,-0.1658 1.34226,-0.15218 0.36407,0.168 -1.8534,0.60667 -8.13076,1.15429 -10.55286,0.9206 -1.28241,-0.12373 -3.21098,-0.42978 -4.28572,-0.68013 l -1.95407,-0.45516 0.1234,2.33676 c 0.0828,1.56722 0.34739,2.65135 0.80357,3.29199 0.3741,0.52538 0.68018,1.30325 0.68018,1.72861 0,0.42535 0.49785,1.49697 1.10633,2.38138 0.64689,0.94022 1.03377,1.88549 0.9316,2.2762 -0.0993,0.37991 0.10942,0.92535 0.4839,1.26425 0.36225,0.32783 1.31845,1.66285 2.12489,2.96672 2.31295,3.73963 2.97696,4.61015 3.81824,5.00568 0.84159,0.39568 2.01141,2.30527 1.63984,2.67685 -0.33657,0.33657 -0.6135,0.27608 -1.37583,-0.30051 z M 344.2467,438.30714 c 2.43824,0.18417 2.47495,0.17464 1.48628,-0.38568 -1.34428,-0.76185 -0.96571,-1.08661 0.42708,-0.36637 1.96464,1.01596 2.82299,0.51658 2.05453,-1.1953 -0.2933,-0.6534 -0.28008,-0.90049 0.0542,-1.01191 0.64283,-0.21427 0.54309,-0.93475 -0.27302,-1.97228 -0.41459,-0.52705 -0.62005,-1.1574 -0.48877,-1.49951 0.14513,-0.37819 -0.047,-0.78175 -0.53475,-1.12341 -0.56089,-0.39286 -0.76123,-0.90871 -0.76123,-1.96004 0,-0.78476 -0.3092,-2.02118 -0.68712,-2.7476 -0.65106,-1.25145 -1.5777,-4.14989 -1.97367,-6.17344 -0.37601,-1.92151 -3.05448,-4.18641 -4.41064,-3.72961 -0.33393,0.11248 -1.49107,1.57684 -2.57143,3.25414 -1.08036,1.67729 -2.32589,3.38941 -2.76786,3.80471 -0.44196,0.4153 -0.80357,0.90695 -0.80357,1.09255 0,0.83783 2.86444,4.91955 5.11532,7.28914 1.36152,1.43332 2.31104,2.60604 2.11004,2.60604 -0.63538,0 -5.60307,-5.53623 -6.52199,-7.26841 -0.82662,-1.55819 -1.41766,-2.10526 -1.41766,-1.31219 0,0.19139 -0.46065,0.58619 -1.02368,0.87734 -0.68274,0.35306 -1.09926,0.90725 -1.25061,1.664 -0.12481,0.62405 -0.76588,1.64294 -1.42461,2.2642 -0.65873,0.62126 -1.39159,1.71712 -1.6286,2.43525 -0.24504,0.74249 -0.73832,1.40325 -1.14359,1.53188 -0.69206,0.21965 -1.38605,1.47387 -1.38605,2.50496 0,1.51152 7.34026,2.41939 13.57143,1.67856 2.0625,-0.24522 4.875,-0.36088 6.25,-0.25702 z"
           id="path37"
           inkscape:connector-curvature="0"
           transform="scale(0.26458333)" />
        <path
           style="fill:#d4aa00;stroke-width:0.12626907"
           d="m 349.92524,603.60213 c -34.03302,-1.16218 -66.26985,-6.57146 -96.46957,-16.18742 -2.80029,-0.89165 -2.90561,-0.93702 -2.94414,-1.26824 -0.022,-0.18893 -0.0184,-0.34352 0.008,-0.34352 0.0263,0 0.55568,0.17302 1.17638,0.38449 3.47356,1.1834 11.44687,3.54986 16.7859,4.98202 37.16841,9.97015 78.3044,13.87387 117.68278,11.16784 34.58562,-2.37667 66.86577,-9.34764 96.51319,-20.84222 4.59055,-1.7798 11.34145,-4.64633 15.07709,-6.40195 l 1.3574,-0.63792 v 0.36931 c 0,0.41863 0.32568,0.24472 -4.3718,2.3345 -31.72159,14.11203 -68.87354,22.99833 -107.37633,25.68313 -3.71341,0.25893 -6.502,0.41937 -11.30108,0.65019 -3.58498,0.17243 -22.03409,0.24992 -26.1377,0.10979 z"
           id="path39"
           inkscape:connector-curvature="0"
           transform="scale(0.26458333)" />
        <path
           style="fill:#000000;stroke-width:0.50507629"
           d="m 362.35609,463.45192 c -1.29372,-0.59419 -2.97614,-1.94957 -3.87388,-3.12085 -2.71095,-3.53698 -7.02833,-12.52845 -9.40349,-19.58395 -0.23163,-0.68807 -0.59678,-0.76575 -1.95669,-0.41624 -3.61863,0.93003 -22.59386,2.49466 -22.96401,1.89353 -0.12829,-0.20834 -1.05459,-0.37881 -2.05844,-0.37881 -1.62755,0 -2.21226,0.41951 -5.39976,3.87414 -1.96602,2.13077 -4.14279,4.60282 -4.83727,5.49344 -7.24797,9.29497 -10.91344,12.41256 -10.51388,8.94239 0.1181,-1.0257 0.63599,-1.61143 1.98406,-2.24395 1.59861,-0.75008 3.66832,-2.94439 9.3956,-9.96121 2.41796,-2.96239 3.20617,-4.59406 3.08542,-6.38709 -0.13381,-1.98686 0.88347,-2.99701 3.52192,-3.49721 1.09241,-0.20711 1.85826,-0.74035 2.22764,-1.55106 0.3096,-0.67949 0.74788,-1.23544 0.97394,-1.23544 0.22607,0 0.73851,-0.62503 1.13876,-1.38896 0.40025,-0.76393 1.15736,-1.84353 1.68246,-2.39911 0.5251,-0.55559 1.50777,-2.1177 2.18371,-3.47138 0.67594,-1.35367 1.53307,-2.57791 1.90474,-2.72053 0.86557,-0.33215 1.77408,-2.53389 1.71744,-4.16215 -0.0279,-0.80292 0.0497,-0.94085 0.21316,-0.37881 0.14139,0.48613 0.42495,0.88388 0.63013,0.88388 0.44016,0 2.58275,-2.80924 2.58463,-3.38881 7.1e-4,-0.21959 0.79621,-1.71753 1.76777,-3.32874 0.97156,-1.61122 1.76647,-3.44791 1.76647,-4.08153 0,-0.70166 0.47767,-1.4077 1.22183,-1.80596 1.06838,-0.57178 1.41728,-0.51475 2.77792,0.45412 0.85585,0.60942 1.55609,1.45935 1.55609,1.88875 0,0.4294 0.43432,1.60716 0.96516,2.61726 0.53084,1.01009 1.29723,2.85931 1.70308,4.10938 0.40585,1.25006 1.53615,4.65933 2.51176,7.57614 0.97562,2.91682 1.92536,6.32608 2.11052,7.57615 0.18518,1.25006 0.68984,2.81245 1.12149,3.47197 0.76295,1.16571 0.93745,1.19283 6.26239,0.97344 3.01266,-0.12413 5.37337,-0.0571 5.24602,0.14895 -0.34578,0.5595 -5.00993,1.46655 -7.54111,1.46655 -2.17541,0 -3.40752,0.67458 -2.15467,1.17968 0.50423,0.20328 0.50487,0.26399 0.003,0.29568 -0.34724,0.0219 -0.63134,0.60718 -0.63134,1.30055 0,1.50313 1.8826,7.16513 2.85096,8.57442 0.37652,0.54795 0.68457,1.32769 0.68457,1.73275 0,0.95839 4.79486,7.98711 6.6466,9.74315 0.78904,0.74827 1.43462,1.60059 1.43462,1.89404 0,0.29345 -0.0568,0.5174 -0.12627,0.49767 -0.0694,-0.0197 -1.15538,-0.50854 -2.41319,-1.08624 z m -16.14881,-25.18196 c 2.5e-4,-0.16095 0.51185,-0.27459 1.13688,-0.25253 1.84702,0.0652 1.68596,-3.27136 -0.38815,-8.04112 -0.36239,-0.83338 -1.37921,-3.82252 -2.25961,-6.64254 -2.66108,-8.52382 -4.47156,-9.23071 -8.78325,-3.42933 -1.56057,2.09976 -2.8374,4.09064 -2.8374,4.42419 0,0.33356 -0.43197,0.87624 -0.95995,1.20597 -0.52797,0.32972 -2.05346,2.25949 -3.38998,4.28837 -1.33651,2.02888 -2.83645,4.09548 -3.33319,4.59243 -0.49675,0.49696 -0.90317,1.45642 -0.90317,2.13214 0,0.94808 0.37476,1.34129 1.6415,1.72231 1.70806,0.51375 20.07553,0.51386 20.07632,1.1e-4 z"
           id="path43"
           inkscape:connector-curvature="0"
           transform="scale(0.26458333)" />
        <path
           style="fill:#000000;stroke-width:0.12626907"
           d="m 345.86137,603.39467 c -29.92904,-1.39508 -57.52693,-5.83226 -84.0952,-13.52079 -3.00667,-0.87009 -9.27781,-2.80594 -10.47298,-3.23292 -0.46951,-0.16773 -0.83325,-0.5101 -0.692,-0.65135 0.0352,-0.0352 0.77188,0.16211 1.63703,0.43849 30.98669,9.89918 62.8649,15.37681 96.33398,16.55304 4.12435,0.14495 4.42337,0.17088 4.42337,0.38362 0,0.21015 -0.14207,0.22685 -1.79933,0.21144 -0.98963,-0.009 -3.39032,-0.0909 -5.33487,-0.18153 z"
           id="path45"
           inkscape:connector-curvature="0"
           transform="scale(0.26458333)" />
      </g>
      <flowRoot
         xml:space="preserve"
         id="flowRoot47"
         style="fill:black;fill-opacity:1;stroke:none;font-family:sans-serif;font-style:normal;font-weight:normal;font-size:40px;line-height:1.25;letter-spacing:0px;word-spacing:0px"><flowRegion
           id="flowRegion49"><rect
             id="rect51"
             width="302.85715"
             height="148.57143"
             x="285.71429"
             y="751.09113" /></flowRegion><flowPara
           id="flowPara53"></flowPara></flowRoot>      <flowRoot
         xml:space="preserve"
         id="flowRoot55"
         style="fill:black;fill-opacity:1;stroke:none;font-family:sans-serif;font-style:normal;font-weight:normal;font-size:40px;line-height:1.25;letter-spacing:0px;word-spacing:0px"><flowRegion
           id="flowRegion57"><rect
             id="rect59"
             width="409.45917"
             height="179.49306"
             x="499.11227"
             y="574.4552" /></flowRegion><flowPara
           id="flowPara61"></flowPara></flowRoot>    </g>
  </g>
</svg>
